<?xml version="1.0" encoding="UTF-8"?>
<svg version="1.1" xmlns="http://www.w3.org/2000/svg" width="48" height="48">
<path d="M0 0 C0 0.99 0 1.98 0 3 C-2 4.6875 -2 4.6875 -4 6 C-3.72459296 9.81813447 -3.72459296 9.81813447 -2 13 C1.5 13.16666667 1.5 13.16666667 5 13 C6.96822886 11.03177114 6.66248381 7.65191291 7 5 C11.81502206 9.43488874 13.72329127 12.23291268 14.375 18.75 C14.19472435 24.3597542 12.39087372 29.71236855 8.28125 33.64453125 C2.36432116 37.99447682 -2.86383256 38.77887373 -10 38 C-12.92186546 37.03873482 -15.56711418 35.89930251 -18 34 C-18.495 32.515 -18.495 32.515 -19 31 C-19.66 31 -20.32 31 -21 31 C-23.65159266 24.81295046 -25.47967124 19.50589151 -23.30859375 12.89453125 C-20.70650605 7.09154905 -17.2249485 3.83037618 -11.6875 0.6875 C-7.78939712 -0.30968911 -4.00077902 -0.15689329 0 0 Z " fill="#FDD62D" transform="translate(33,8)"/>
<path d="M0 0 C9.57668161 -1.0735426 9.57668161 -1.0735426 13.06640625 1.55859375 C14.52961293 3.31091597 15.81955587 5.04753546 17 7 C16 8 16 8 14.1796875 8.01953125 C8.45467698 7.50525064 4.79909657 6.16536157 0 3 C0 2.01 0 1.02 0 0 Z " fill="#9BCDB8" transform="translate(1,3)"/>
</svg>
